<svg version="1.1" id="Layer_1" xmlns="http://www.w3.org/2000/svg" xmlns:xlink="http://www.w3.org/1999/xlink" x="0px" y="0px"
	 width="100%" viewBox="0 0 360 475" enable-background="new 0 0 360 475" xml:space="preserve">
<path fill="#F5F5F5" opacity="1.000000" stroke="none" 
	d="
M89.853256,448.232941 
	C89.050697,451.575012 88.034264,454.537720 87.895294,457.541046 
	C87.750137,460.677979 86.939140,462.027557 83.542763,461.845337 
	C78.562675,461.578094 73.550804,461.641663 68.564400,461.849731 
	C65.500214,461.977631 63.972656,461.376282 64.079727,457.806946 
	C64.248985,452.164368 61.833576,447.555176 57.685192,443.617096 
	C53.299564,439.453766 48.279144,439.824921 43.455109,441.550720 
	C37.993946,443.504456 34.275982,447.464264 33.980976,453.779724 
	C33.864571,456.271729 33.590694,458.756378 33.345032,461.779572 
	C28.110502,461.779572 22.530684,461.929962 16.973829,461.640106 
	C15.980597,461.588318 14.317773,459.749847 14.267737,458.675629 
	C13.996714,452.856628 13.870752,446.998108 14.320184,441.201660 
	C14.431635,439.764252 16.649607,437.750275 18.265844,437.290894 
	C27.945068,434.539551 31.257839,430.917603 31.351686,422.157806 
	C31.417349,416.028839 26.730829,410.811523 18.685301,408.730255 
	C14.933116,407.759583 13.454731,405.946136 14.136464,402.131012 
	C14.425476,400.513641 14.435770,398.774536 14.194310,397.146881 
	C13.186192,390.351288 14.361209,385.710754 22.248333,383.345947 
	C29.411554,381.198151 32.116989,375.335388 31.346004,368.997681 
	C30.579409,362.696014 25.675072,357.030212 18.637306,356.121674 
	C14.376146,355.571564 13.999336,353.838226 14.149742,350.430328 
	C14.355183,345.775482 14.356449,341.090424 14.061782,336.442627 
	C13.882915,333.621368 14.984930,332.437012 17.421871,331.299683 
	C20.542152,329.843445 23.834164,328.170593 26.180349,325.747070 
	C34.014748,317.654541 29.517860,306.117462 18.029276,302.356110 
	C14.740912,301.279480 14.031645,299.974335 14.174812,296.916260 
	C14.392648,292.263336 14.310852,287.585236 14.115940,282.927917 
	C13.981403,279.713257 14.745068,278.026764 18.295650,276.915894 
	C26.578800,274.324371 30.084772,269.436829 30.320951,262.943054 
	C30.624573,254.594894 24.801977,249.096359 18.978222,247.858749 
	C14.600955,246.928558 13.879575,244.813568 14.128638,241.044403 
	C14.380732,237.229370 14.422700,233.364502 14.109407,229.558289 
	C13.802706,225.832123 14.922482,224.375183 18.860659,224.071426 
	C26.619146,223.473007 31.858534,218.784409 33.429756,211.932053 
	C35.388630,203.389099 29.491697,195.559540 18.926291,193.975876 
	C14.617366,193.329987 13.707165,191.634552 14.135287,187.994995 
	C14.232253,187.170670 14.328879,186.309601 14.200332,185.501282 
	C13.178012,179.072906 14.552636,174.916626 21.823816,172.558777 
	C27.659325,170.666473 31.548733,165.626846 30.350698,157.677780 
	C29.337074,150.952286 24.599943,147.572021 18.839588,145.921799 
	C14.992611,144.819717 13.836381,143.197937 14.157673,139.423279 
	C14.481299,135.621201 14.418422,131.745041 14.083464,127.940193 
	C13.776436,124.452614 15.068412,122.938995 18.434790,122.180771 
	C25.045277,120.691872 29.879852,116.890045 31.275372,109.950233 
	C32.504639,103.837189 28.787861,95.249916 20.004606,93.564301 
	C15.546723,92.708771 13.325094,90.559761 14.193584,85.777451 
	C14.486498,84.164536 14.401850,82.434616 14.210159,80.790779 
	C13.501521,74.713860 14.586365,70.406715 21.439713,67.885956 
	C26.680847,65.958191 29.366175,60.450272 29.267878,54.614552 
	C29.175459,49.128017 25.893147,45.281067 21.195730,42.707626 
	C19.060307,41.537754 16.778000,40.635990 14.718074,39.684551 
	C14.128127,32.260117 13.539258,24.849251 13.015136,18.253208 
	C15.439088,17.186541 17.957512,15.840768 20.629471,14.961636 
	C24.097273,13.820653 27.662182,12.542190 31.236725,12.365924 
	C32.717663,12.292896 34.936924,14.629317 35.776596,16.372715 
	C38.797253,22.644466 42.650246,27.349363 50.375957,27.222355 
	C56.570076,27.120525 61.697685,23.721218 63.898758,17.948940 
	C64.505455,16.357889 64.678612,13.723757 65.706085,13.344692 
	C68.225548,12.415188 71.120789,12.352530 73.876251,12.251086 
	C77.700188,12.110304 81.580444,11.917337 85.343056,12.431368 
	C86.964165,12.652836 89.086441,14.282920 89.719460,15.799618 
	C92.805626,23.193987 97.423378,26.797020 103.676064,27.367903 
	C109.832664,27.930010 116.087021,23.495764 117.950356,17.127741 
	C118.989288,13.577149 120.552567,12.905487 123.781311,12.976095 
	C126.819847,13.042545 129.868805,12.305362 132.923538,12.042062 
	C136.614563,11.723917 138.433609,13.724511 139.476425,17.116117 
	C142.298264,26.293686 153.270874,30.417990 161.096588,25.206846 
	C163.475082,23.623013 165.464142,20.742720 166.507843,18.024708 
	C168.290359,13.382710 171.604462,12.182990 175.938278,12.144362 
	C177.769180,12.128043 179.600204,12.126616 181.431152,12.113498 
	C187.272980,12.071644 192.757309,10.817714 194.551605,19.795790 
	C195.807327,26.078999 202.789017,27.932562 209.423874,27.247725 
	C214.844833,26.688187 218.680695,23.796982 220.116165,18.719490 
	C221.590714,13.503833 224.008530,11.210711 229.516296,13.040726 
	C230.609756,13.404036 232.066254,12.759863 233.336502,12.491177 
	C239.143768,11.262827 241.468475,12.843987 243.941910,18.427185 
	C246.147079,23.404791 249.432236,27.704407 255.504471,28.281088 
	C262.430969,28.938894 267.538086,25.995163 270.868744,19.938181 
	C271.575684,18.652576 272.578949,17.324858 272.688141,15.956090 
	C272.958466,12.568727 275.100159,12.210919 277.714478,12.205095 
	C281.927948,12.195708 286.141388,12.152428 290.354828,12.122186 
	C293.808929,12.097395 296.416046,12.060752 297.495026,16.917551 
	C299.143341,24.337294 304.926758,28.163874 311.808807,28.259365 
	C318.179871,28.347765 322.906525,24.728455 325.628479,17.428642 
	C327.012238,13.717653 328.409912,11.220793 333.365997,12.898792 
	C336.352081,13.909812 339.979218,13.243700 343.294830,13.005301 
	C346.702515,12.760283 348.152740,13.827178 347.954865,17.467991 
	C347.665833,22.785778 347.632172,28.135254 347.856201,33.455788 
	C347.972565,36.219124 347.024475,37.526142 344.559845,38.660648 
	C339.069092,41.188099 334.383545,43.981979 333.383423,51.320847 
	C332.467163,58.044067 334.910614,62.647518 340.017883,64.993767 
	C346.961395,68.183563 348.927002,72.876717 347.786407,79.763420 
	C347.759430,79.926231 347.751495,80.099464 347.774414,80.262245 
	C348.726715,87.035019 347.706238,92.380959 340.049683,95.094437 
	C334.551147,97.043106 332.277374,102.299927 332.787384,107.887146 
	C333.302643,113.531593 336.266083,118.298569 341.965607,120.136269 
	C346.899170,121.726997 348.882294,124.489189 347.790375,129.532471 
	C347.618134,130.328003 347.714355,131.197968 347.780121,132.026093 
	C348.289032,138.439117 348.778442,143.933380 339.901520,146.074051 
	C333.032410,147.730530 330.919983,154.439911 331.666687,161.535782 
	C332.369110,168.211105 337.013580,171.672119 342.460571,173.765930 
	C346.566071,175.344070 348.500580,177.355850 347.816650,181.736954 
	C347.613403,183.038696 347.628662,184.418686 347.803894,185.728027 
	C348.754852,192.834213 347.980347,198.163651 339.409576,200.722229 
	C333.098724,202.606140 330.522675,208.733017 331.641937,215.564224 
	C332.713318,222.103180 337.299072,225.894257 343.124023,227.610565 
	C346.983398,228.747742 348.289948,230.495453 347.850586,234.169083 
	C347.732483,235.156204 347.690369,236.180817 347.812103,237.163605 
	C348.650177,243.930237 347.677185,248.925385 339.525024,250.974167 
	C334.239258,252.302612 331.898956,257.339539 331.535400,263.225891 
	C331.123444,269.897064 334.350433,274.804688 339.790192,276.365967 
	C347.812164,278.668457 348.691315,283.576935 347.787140,290.255890 
	C347.698547,290.910522 347.681183,291.601929 347.785522,292.251373 
	C348.822174,298.705658 347.207886,302.861328 339.984131,304.813263 
	C333.872742,306.464600 331.013306,311.539551 331.586700,318.286926 
	C332.077423,324.061615 334.469666,328.415070 340.012634,330.286224 
	C346.025055,332.315887 349.519806,335.537292 347.811249,342.388367 
	C347.576599,343.329315 347.708374,344.386108 347.794617,345.378510 
	C348.212250,350.185120 348.193939,353.744171 341.625519,355.115875 
	C335.587830,356.376770 330.732422,362.694427 331.601257,370.156311 
	C332.227081,375.531403 337.294647,382.281799 343.803375,383.947937 
	C347.404816,384.869843 348.322235,386.384399 347.883972,389.677002 
	C347.643951,391.480591 347.753357,393.337341 347.782288,395.168915 
	C347.887238,401.814880 349.481506,408.280243 339.322113,410.409149 
	C333.920471,411.541046 330.583374,418.107666 331.620789,424.849304 
	C332.549408,430.883942 336.350220,435.161011 341.855347,436.654816 
	C346.889923,438.020874 348.442474,440.246124 347.941864,445.162903 
	C347.505157,449.452057 347.651947,453.825104 347.854950,458.146332 
	C347.994446,461.117279 346.724670,461.913940 344.031921,461.865295 
	C338.219238,461.760284 332.403351,461.833008 326.863922,461.833008 
	C325.188782,456.988647 324.188995,452.166779 321.948273,448.014648 
	C317.109772,439.048798 302.919434,438.708649 297.692871,449.038910 
	C296.219116,451.951782 295.329010,455.320435 294.939880,458.572052 
	C294.613617,461.298279 293.546509,461.865448 291.147980,461.811310 
	C285.990997,461.694824 280.812836,461.519440 275.675781,461.859070 
	C272.058746,462.098206 271.092468,460.911163 271.132568,457.401703 
	C271.217316,449.986267 265.917755,443.038544 259.670471,441.710541 
	C251.525253,439.979126 243.942810,444.716309 241.710449,452.953796 
	C240.928772,455.838257 241.074570,459.873993 239.204163,461.311035 
	C237.324219,462.755402 233.461700,461.621338 230.467987,461.613861 
	C221.825836,461.592316 222.077179,461.537598 220.245056,453.020142 
	C218.322250,444.080994 211.502426,440.100769 203.642609,440.509491 
	C196.510086,440.880402 190.931625,449.119690 190.666290,454.827515 
	C190.344604,461.747650 190.223984,461.764648 183.211807,461.712128 
	C179.217453,461.682190 175.213257,461.565857 171.230865,461.792847 
	C168.247055,461.962952 167.104767,461.070892 167.086548,457.915314 
	C167.054886,452.427002 165.187775,447.512787 161.002625,443.718384 
	C156.275787,439.432861 150.658569,439.430878 145.383575,441.729492 
	C139.696960,444.207428 136.788513,449.524780 136.796127,455.537903 
	C136.802353,460.463348 135.590714,462.699066 130.486603,461.772827 
	C130.163269,461.714142 129.821335,461.759949 129.488144,461.753052 
	C126.165794,461.684296 122.188889,462.688141 119.736343,461.192535 
	C117.903191,460.074615 118.206856,455.674896 117.259148,452.836639 
	C115.278099,446.903534 112.111320,441.681793 105.384659,440.691132 
	C98.965233,439.745667 93.360718,441.666748 89.853256,448.232941 
z"/>
<path fill="none" stroke="grey" stroke-width="1px"
	d="
M89.853256,448.232941 
	C89.050697,451.575012 88.034264,454.537720 87.895294,457.541046 
	C87.750137,460.677979 86.939140,462.027557 83.542763,461.845337 
	C78.562675,461.578094 73.550804,461.641663 68.564400,461.849731 
	C65.500214,461.977631 63.972656,461.376282 64.079727,457.806946 
	C64.248985,452.164368 61.833576,447.555176 57.685192,443.617096 
	C53.299564,439.453766 48.279144,439.824921 43.455109,441.550720 
	C37.993946,443.504456 34.275982,447.464264 33.980976,453.779724 
	C33.864571,456.271729 33.590694,458.756378 33.345032,461.779572 
	C28.110502,461.779572 22.530684,461.929962 16.973829,461.640106 
	C15.980597,461.588318 14.317773,459.749847 14.267737,458.675629 
	C13.996714,452.856628 13.870752,446.998108 14.320184,441.201660 
	C14.431635,439.764252 16.649607,437.750275 18.265844,437.290894 
	C27.945068,434.539551 31.257839,430.917603 31.351686,422.157806 
	C31.417349,416.028839 26.730829,410.811523 18.685301,408.730255 
	C14.933116,407.759583 13.454731,405.946136 14.136464,402.131012 
	C14.425476,400.513641 14.435770,398.774536 14.194310,397.146881 
	C13.186192,390.351288 14.361209,385.710754 22.248333,383.345947 
	C29.411554,381.198151 32.116989,375.335388 31.346004,368.997681 
	C30.579409,362.696014 25.675072,357.030212 18.637306,356.121674 
	C14.376146,355.571564 13.999336,353.838226 14.149742,350.430328 
	C14.355183,345.775482 14.356449,341.090424 14.061782,336.442627 
	C13.882915,333.621368 14.984930,332.437012 17.421871,331.299683 
	C20.542152,329.843445 23.834164,328.170593 26.180349,325.747070 
	C34.014748,317.654541 29.517860,306.117462 18.029276,302.356110 
	C14.740912,301.279480 14.031645,299.974335 14.174812,296.916260 
	C14.392648,292.263336 14.310852,287.585236 14.115940,282.927917 
	C13.981403,279.713257 14.745068,278.026764 18.295650,276.915894 
	C26.578800,274.324371 30.084772,269.436829 30.320951,262.943054 
	C30.624573,254.594894 24.801977,249.096359 18.978222,247.858749 
	C14.600955,246.928558 13.879575,244.813568 14.128638,241.044403 
	C14.380732,237.229370 14.422700,233.364502 14.109407,229.558289 
	C13.802706,225.832123 14.922482,224.375183 18.860659,224.071426 
	C26.619146,223.473007 31.858534,218.784409 33.429756,211.932053 
	C35.388630,203.389099 29.491697,195.559540 18.926291,193.975876 
	C14.617366,193.329987 13.707165,191.634552 14.135287,187.994995 
	C14.232253,187.170670 14.328879,186.309601 14.200332,185.501282 
	C13.178012,179.072906 14.552636,174.916626 21.823816,172.558777 
	C27.659325,170.666473 31.548733,165.626846 30.350698,157.677780 
	C29.337074,150.952286 24.599943,147.572021 18.839588,145.921799 
	C14.992611,144.819717 13.836381,143.197937 14.157673,139.423279 
	C14.481299,135.621201 14.418422,131.745041 14.083464,127.940193 
	C13.776436,124.452614 15.068412,122.938995 18.434790,122.180771 
	C25.045277,120.691872 29.879852,116.890045 31.275372,109.950233 
	C32.504639,103.837189 28.787861,95.249916 20.004606,93.564301 
	C15.546723,92.708771 13.325094,90.559761 14.193584,85.777451 
	C14.486498,84.164536 14.401850,82.434616 14.210159,80.790779 
	C13.501521,74.713860 14.586365,70.406715 21.439713,67.885956 
	C26.680847,65.958191 29.366175,60.450272 29.267878,54.614552 
	C29.175459,49.128017 25.893147,45.281067 21.195730,42.707626 
	C19.060307,41.537754 16.778000,40.635990 14.718074,39.684551 
	C14.128127,32.260117 13.539258,24.849251 13.015136,18.253208 
	C15.439088,17.186541 17.957512,15.840768 20.629471,14.961636 
	C24.097273,13.820653 27.662182,12.542190 31.236725,12.365924 
	C32.717663,12.292896 34.936924,14.629317 35.776596,16.372715 
	C38.797253,22.644466 42.650246,27.349363 50.375957,27.222355 
	C56.570076,27.120525 61.697685,23.721218 63.898758,17.948940 
	C64.505455,16.357889 64.678612,13.723757 65.706085,13.344692 
	C68.225548,12.415188 71.120789,12.352530 73.876251,12.251086 
	C77.700188,12.110304 81.580444,11.917337 85.343056,12.431368 
	C86.964165,12.652836 89.086441,14.282920 89.719460,15.799618 
	C92.805626,23.193987 97.423378,26.797020 103.676064,27.367903 
	C109.832664,27.930010 116.087021,23.495764 117.950356,17.127741 
	C118.989288,13.577149 120.552567,12.905487 123.781311,12.976095 
	C126.819847,13.042545 129.868805,12.305362 132.923538,12.042062 
	C136.614563,11.723917 138.433609,13.724511 139.476425,17.116117 
	C142.298264,26.293686 153.270874,30.417990 161.096588,25.206846 
	C163.475082,23.623013 165.464142,20.742720 166.507843,18.024708 
	C168.290359,13.382710 171.604462,12.182990 175.938278,12.144362 
	C177.769180,12.128043 179.600204,12.126616 181.431152,12.113498 
	C187.272980,12.071644 192.757309,10.817714 194.551605,19.795790 
	C195.807327,26.078999 202.789017,27.932562 209.423874,27.247725 
	C214.844833,26.688187 218.680695,23.796982 220.116165,18.719490 
	C221.590714,13.503833 224.008530,11.210711 229.516296,13.040726 
	C230.609756,13.404036 232.066254,12.759863 233.336502,12.491177 
	C239.143768,11.262827 241.468475,12.843987 243.941910,18.427185 
	C246.147079,23.404791 249.432236,27.704407 255.504471,28.281088 
	C262.430969,28.938894 267.538086,25.995163 270.868744,19.938181 
	C271.575684,18.652576 272.578949,17.324858 272.688141,15.956090 
	C272.958466,12.568727 275.100159,12.210919 277.714478,12.205095 
	C281.927948,12.195708 286.141388,12.152428 290.354828,12.122186 
	C293.808929,12.097395 296.416046,12.060752 297.495026,16.917551 
	C299.143341,24.337294 304.926758,28.163874 311.808807,28.259365 
	C318.179871,28.347765 322.906525,24.728455 325.628479,17.428642 
	C327.012238,13.717653 328.409912,11.220793 333.365997,12.898792 
	C336.352081,13.909812 339.979218,13.243700 343.294830,13.005301 
	C346.702515,12.760283 348.152740,13.827178 347.954865,17.467991 
	C347.665833,22.785778 347.632172,28.135254 347.856201,33.455788 
	C347.972565,36.219124 347.024475,37.526142 344.559845,38.660648 
	C339.069092,41.188099 334.383545,43.981979 333.383423,51.320847 
	C332.467163,58.044067 334.910614,62.647518 340.017883,64.993767 
	C346.961395,68.183563 348.927002,72.876717 347.786407,79.763420 
	C347.759430,79.926231 347.751495,80.099464 347.774414,80.262245 
	C348.726715,87.035019 347.706238,92.380959 340.049683,95.094437 
	C334.551147,97.043106 332.277374,102.299927 332.787384,107.887146 
	C333.302643,113.531593 336.266083,118.298569 341.965607,120.136269 
	C346.899170,121.726997 348.882294,124.489189 347.790375,129.532471 
	C347.618134,130.328003 347.714355,131.197968 347.780121,132.026093 
	C348.289032,138.439117 348.778442,143.933380 339.901520,146.074051 
	C333.032410,147.730530 330.919983,154.439911 331.666687,161.535782 
	C332.369110,168.211105 337.013580,171.672119 342.460571,173.765930 
	C346.566071,175.344070 348.500580,177.355850 347.816650,181.736954 
	C347.613403,183.038696 347.628662,184.418686 347.803894,185.728027 
	C348.754852,192.834213 347.980347,198.163651 339.409576,200.722229 
	C333.098724,202.606140 330.522675,208.733017 331.641937,215.564224 
	C332.713318,222.103180 337.299072,225.894257 343.124023,227.610565 
	C346.983398,228.747742 348.289948,230.495453 347.850586,234.169083 
	C347.732483,235.156204 347.690369,236.180817 347.812103,237.163605 
	C348.650177,243.930237 347.677185,248.925385 339.525024,250.974167 
	C334.239258,252.302612 331.898956,257.339539 331.535400,263.225891 
	C331.123444,269.897064 334.350433,274.804688 339.790192,276.365967 
	C347.812164,278.668457 348.691315,283.576935 347.787140,290.255890 
	C347.698547,290.910522 347.681183,291.601929 347.785522,292.251373 
	C348.822174,298.705658 347.207886,302.861328 339.984131,304.813263 
	C333.872742,306.464600 331.013306,311.539551 331.586700,318.286926 
	C332.077423,324.061615 334.469666,328.415070 340.012634,330.286224 
	C346.025055,332.315887 349.519806,335.537292 347.811249,342.388367 
	C347.576599,343.329315 347.708374,344.386108 347.794617,345.378510 
	C348.212250,350.185120 348.193939,353.744171 341.625519,355.115875 
	C335.587830,356.376770 330.732422,362.694427 331.601257,370.156311 
	C332.227081,375.531403 337.294647,382.281799 343.803375,383.947937 
	C347.404816,384.869843 348.322235,386.384399 347.883972,389.677002 
	C347.643951,391.480591 347.753357,393.337341 347.782288,395.168915 
	C347.887238,401.814880 349.481506,408.280243 339.322113,410.409149 
	C333.920471,411.541046 330.583374,418.107666 331.620789,424.849304 
	C332.549408,430.883942 336.350220,435.161011 341.855347,436.654816 
	C346.889923,438.020874 348.442474,440.246124 347.941864,445.162903 
	C347.505157,449.452057 347.651947,453.825104 347.854950,458.146332 
	C347.994446,461.117279 346.724670,461.913940 344.031921,461.865295 
	C338.219238,461.760284 332.403351,461.833008 326.863922,461.833008 
	C325.188782,456.988647 324.188995,452.166779 321.948273,448.014648 
	C317.109772,439.048798 302.919434,438.708649 297.692871,449.038910 
	C296.219116,451.951782 295.329010,455.320435 294.939880,458.572052 
	C294.613617,461.298279 293.546509,461.865448 291.147980,461.811310 
	C285.990997,461.694824 280.812836,461.519440 275.675781,461.859070 
	C272.058746,462.098206 271.092468,460.911163 271.132568,457.401703 
	C271.217316,449.986267 265.917755,443.038544 259.670471,441.710541 
	C251.525253,439.979126 243.942810,444.716309 241.710449,452.953796 
	C240.928772,455.838257 241.074570,459.873993 239.204163,461.311035 
	C237.324219,462.755402 233.461700,461.621338 230.467987,461.613861 
	C221.825836,461.592316 222.077179,461.537598 220.245056,453.020142 
	C218.322250,444.080994 211.502426,440.100769 203.642609,440.509491 
	C196.510086,440.880402 190.931625,449.119690 190.666290,454.827515 
	C190.344604,461.747650 190.223984,461.764648 183.211807,461.712128 
	C179.217453,461.682190 175.213257,461.565857 171.230865,461.792847 
	C168.247055,461.962952 167.104767,461.070892 167.086548,457.915314 
	C167.054886,452.427002 165.187775,447.512787 161.002625,443.718384 
	C156.275787,439.432861 150.658569,439.430878 145.383575,441.729492 
	C139.696960,444.207428 136.788513,449.524780 136.796127,455.537903 
	C136.802353,460.463348 135.590714,462.699066 130.486603,461.772827 
	C130.163269,461.714142 129.821335,461.759949 129.488144,461.753052 
	C126.165794,461.684296 122.188889,462.688141 119.736343,461.192535 
	C117.903191,460.074615 118.206856,455.674896 117.259148,452.836639 
	C115.278099,446.903534 112.111320,441.681793 105.384659,440.691132 
	C98.965233,439.745667 93.360718,441.666748 89.853256,448.232941 
z"/>
</svg>